<svg width="183" height="183" viewBox="0 0 183 183" fill="none" xmlns="http://www.w3.org/2000/svg">
<path d="M91.203 0C40.834 0 0 40.833 0 91.203C0 141.574 40.834 182.407 91.203 182.407C141.576 182.407 182.407 141.574 182.407 91.203C182.407 40.833 141.576 0 91.203 0ZM57.999 170.905C59.258 170.132 60.752 169.106 62.042 168.21C73.276 160.446 79.38 153.925 82.294 146.991C86.454 137.142 86.454 128.542 86.454 106.069V72.78C86.454 64.482 86.454 58.801 86.469 54.692C86.648 54.768 86.853 54.807 87.058 54.807C88.305 54.807 90.665 54.946 91.776 55.224C96.353 56.196 97.464 58.414 97.74 63.13C98.017 67.569 98.017 71.452 98.017 93.091V117.503C98.017 130.821 98.017 141.779 97.321 147.604C96.767 151.625 96.072 154.678 93.3 155.235C92.051 155.512 90.387 155.79 89.14 155.79C88.306 155.79 88.029 156.204 88.029 156.618C88.029 157.454 88.723 157.729 90.249 157.729C92.331 157.729 95.382 157.59 98.156 157.454C100.931 157.454 103.292 157.315 103.845 157.315C107.865 157.315 112.165 157.454 117.992 157.729C123.819 157.868 131.029 158.149 141.018 158.149C143.198 158.149 144.766 158.096 145.925 157.944C131.019 170.19 111.954 177.548 91.203 177.548C79.444 177.547 68.226 175.18 57.999 170.905ZM149.667 154.682C149.695 154.592 149.724 154.496 149.753 154.401C150.863 150.378 151.832 142.056 151.832 140.53C151.832 139.004 151.698 138.448 151.002 138.448C150.167 138.448 149.891 139.142 149.753 140.253C149.338 142.887 147.95 146.356 146.148 148.574C142.82 152.597 136.716 152.736 129.364 152.736C118.544 152.736 114.939 151.765 112.718 149.547C110.224 147.047 109.666 138.172 109.666 117.779V93.091C109.666 71.452 109.666 67.569 109.947 63.13C110.223 58.275 111.33 55.918 115.354 55.224C117.018 54.946 118.958 54.807 119.931 54.807C120.485 54.807 121.042 54.53 121.042 53.974C121.042 53.143 120.346 52.867 118.824 52.867C114.662 52.867 104.534 53.282 103.843 53.282C103.147 53.282 94.41 52.867 88.167 52.867C87.397 52.867 86.84 52.936 86.477 53.114C86.506 47.66 86.573 45.327 86.73 42.82C87.009 37.965 88.118 35.607 91.864 34.913C93.528 34.635 94.359 34.497 95.332 34.497C95.885 34.497 96.438 34.218 96.438 33.665C96.438 32.832 95.746 32.555 94.219 32.555C90.061 32.555 81.321 32.971 80.626 32.971C79.935 32.971 71.196 32.555 64.952 32.555C63.427 32.555 62.735 32.831 62.735 33.665C62.735 34.218 63.288 34.497 63.843 34.497C65.09 34.497 67.447 34.635 68.559 34.913C73.137 35.883 74.247 38.103 74.525 42.82C74.801 47.258 74.801 51.141 74.801 72.78V112.868C74.801 148.655 70.499 156.008 61.483 165.16C60.236 166.41 58.295 168.074 56.631 169.045C56.183 169.346 55.808 169.588 55.51 169.816C25.66 156.212 4.858 126.09 4.858 91.202C4.858 43.592 43.591 4.857 91.202 4.857C138.813 4.857 177.548 43.592 177.548 91.202C177.548 116.28 166.8 138.892 149.667 154.682Z" fill="white"/>
</svg>
